<?xml version="1.0" encoding="iso-8859-1"?>
<!-- Generator: Adobe Illustrator 19.0.0, SVG Export Plug-In . SVG Version: 6.00 Build 0)  -->
<svg xmlns="http://www.w3.org/2000/svg" xmlns:xlink="http://www.w3.org/1999/xlink" version="1.1" id="Layer_1" x="0px" y="0px" viewBox="0 0 511.77 511.77" style="enable-background:new 0 0 511.77 511.77;" xml:space="preserve" width="512px" height="512px">
<g>
	<g>
		<g>
			<path d="M436.906,74.862c-8.341-8.341-21.824-8.341-30.165,0c-8.341,8.341-8.341,21.824,0,30.165     c83.179,83.179,83.179,218.539,0,301.717c-8.341,8.32-8.341,21.824,0,30.165c4.16,4.16,9.621,6.251,15.083,6.251     c5.461,0,10.923-2.091,15.083-6.251C536.724,337.092,536.724,174.681,436.906,74.862z" fill="#dfe2e6"/>
			<path d="M105.029,105.03c8.341-8.341,8.341-21.824,0-30.165c-8.341-8.341-21.824-8.341-30.165,0     c-99.819,99.819-99.819,262.229,0,362.048c4.16,4.16,9.621,6.251,15.083,6.251c5.461,0,10.923-2.091,15.083-6.251     c8.341-8.341,8.341-21.845,0-30.165C21.851,323.569,21.851,188.209,105.029,105.03z" fill="#dfe2e6"/>
			<path d="M255.884,85.218c-94.101,0-170.667,76.565-170.667,170.667s76.565,170.667,170.667,170.667     S426.55,349.986,426.55,255.884S349.985,85.218,255.884,85.218z M255.884,341.218c-11.776,0-21.333-9.557-21.333-21.333     s9.557-21.333,21.333-21.333s21.333,9.557,21.333,21.333S267.66,341.218,255.884,341.218z M277.217,255.884     c0,11.776-9.536,21.333-21.333,21.333s-21.333-9.557-21.333-21.333v-64c0-11.776,9.536-21.333,21.333-21.333     s21.333,9.557,21.333,21.333V255.884z" fill="#dfe2e6"/>
		</g>
	</g>
</g>
<g>
</g>
<g>
</g>
<g>
</g>
<g>
</g>
<g>
</g>
<g>
</g>
<g>
</g>
<g>
</g>
<g>
</g>
<g>
</g>
<g>
</g>
<g>
</g>
<g>
</g>
<g>
</g>
<g>
</g>
</svg>
